<?xml version="1.0" encoding="UTF-8"?>
<!-- Generator: Adobe Illustrator 26.0.1, SVG Export Plug-In . SVG Version: 6.00 Build 0)  -->
<svg xmlns="http://www.w3.org/2000/svg" xmlns:xlink="http://www.w3.org/1999/xlink" version="1.1" id="Layer_1" x="0px" y="0px" viewBox="0 0 500 500" style="enable-background:new 0 0 500 500;" xml:space="preserve">
<style type="text/css">
	.st0{fill:#30302D;}
	.st1{fill:#EA2884;}
	.st2{clip-path:url(#SVGID_00000119840140486753525290000016433750868245385858_);}
	.st3{fill:none;}
</style>
<g>
	<g>
		<path class="st0" d="M391.88,400.63H58.42c-16.73,0-30.34-13.61-30.34-30.35V147.17c0-16.73,13.61-30.34,30.34-30.34H296.8    c3.37,0,6.1,2.73,6.1,6.1c0,3.37-2.73,6.1-6.1,6.1H58.42c-10,0-18.14,8.14-18.14,18.14v223.11c0,10.01,8.14,18.15,18.14,18.15    h333.46c10.01,0,18.15-8.14,18.15-18.15V196.95c0-3.37,2.73-6.1,6.1-6.1c3.37,0,6.1,2.73,6.1,6.1v173.34    C422.23,387.02,408.61,400.63,391.88,400.63z"></path>
	</g>
	<g>
		<path class="st0" d="M424.82,438.11H25.48c-10.72,0-19.41-8.69-19.41-19.41v-5.89c0-1.85,1.5-3.36,3.36-3.36h431.44    c1.85,0,3.36,1.5,3.36,3.36v5.89C444.23,429.42,435.54,438.11,424.82,438.11z"></path>
	</g>
	<g>
		<circle class="st1" cx="225.15" cy="227.01" r="43.27"></circle>
	</g>
	<g>
		<g>
			<path class="st1" d="M319.73,234.21c-1.33,0-2.67-0.4-3.82-1.21c-2.46-1.73-3.44-4.91-2.4-7.73l9.41-25.43h-0.11     c-17.7,0-32.11-14.4-32.11-32.11V94c0-17.7,14.4-32.11,32.11-32.11H461.3c17.99,0,32.63,14.64,32.63,32.63v72.69     c0,17.99-14.64,32.63-32.63,32.63h-98.18l-39.13,32.82C322.77,233.69,321.25,234.21,319.73,234.21z M322.81,74.08     c-10.98,0-19.91,8.93-19.91,19.91v73.73c0,10.98,8.93,19.91,19.91,19.91h8.11c2.16,0,4.2,1.06,5.43,2.84     c1.24,1.78,1.53,4.05,0.77,6.08l-4.91,13.28l24.62-20.65c1.18-1,2.7-1.55,4.25-1.55H461.3c11.27,0,20.43-9.17,20.43-20.43V94.52     c0-11.27-9.17-20.43-20.43-20.43H322.81z M364.68,198.53l-0.01,0.01C364.67,198.54,364.68,198.53,364.68,198.53z"></path>
		</g>
		<g>
			<path class="st1" d="M406.39,121.03h-67.07c-3.37,0-6.1-2.73-6.1-6.1c0-3.37,2.73-6.1,6.1-6.1h67.07c3.37,0,6.1,2.73,6.1,6.1     C412.49,118.3,409.76,121.03,406.39,121.03z"></path>
		</g>
		<g>
			<path class="st1" d="M445.31,156.81H339.32c-3.37,0-6.1-2.73-6.1-6.1c0-3.37,2.73-6.1,6.1-6.1h105.99c3.37,0,6.1,2.73,6.1,6.1     C451.41,154.08,448.68,156.81,445.31,156.81z"></path>
		</g>
	</g>
	<g>
		<path class="st0" d="M300.73,398.46H149.56c-3.37,0-6.1-2.73-6.1-6.1v-36.63c0-33.75,27.46-61.21,61.21-61.21h40.94    c33.75,0,61.21,27.46,61.21,61.21v36.63C306.83,395.73,304.1,398.46,300.73,398.46z M155.66,386.27h138.98v-30.53    c0-27.03-21.99-49.02-49.02-49.02h-40.94c-27.03,0-49.02,21.99-49.02,49.02V386.27z"></path>
	</g>
</g>
</svg>
